<svg width="20" height="12" viewBox="0 0 20 12" fill="none" xmlns="http://www.w3.org/2000/svg">
<path d="M14.4843 8.07007C13.2602 8.07007 12.4894 8.45091 11.8094 8.79548C11.22 9.09471 10.7394 9.33953 9.95052 9.33953C9.13444 9.33953 8.68106 9.11284 8.09167 8.79548C7.4116 8.45091 6.66806 8.07007 5.41673 8.07007C4.1654 8.07007 3.42186 8.45091 2.74179 8.79548C2.1524 9.09471 1.68088 9.33953 0.882935 9.33953V11.1077C2.10706 11.1077 2.8778 10.7269 3.55787 10.3823C4.14727 10.0831 4.61878 9.83825 5.41673 9.83825C6.21468 9.83825 6.68619 10.0649 7.27558 10.3823C7.95565 10.7269 8.6992 11.1077 9.95052 11.1077C11.2018 11.1077 11.9454 10.7269 12.6255 10.3823C13.2149 10.0831 13.6954 9.83825 14.4843 9.83825C15.3004 9.83825 15.7538 10.0649 16.3432 10.3823C17.0232 10.7269 17.7759 11.1077 19.0181 11.1077V9.33953C18.202 9.33953 17.7486 9.11284 17.1593 8.79548C16.4792 8.45091 15.7084 8.07007 14.4843 8.07007Z" fill="black"/>
<path d="M14.4843 4.03516C13.2602 4.03516 12.4894 4.42506 11.8094 4.76056C11.22 5.05073 10.7394 5.30462 9.95052 5.30462C9.13444 5.30462 8.68106 5.07793 8.09167 4.76056C7.4116 4.41599 6.66806 4.03516 5.41673 4.03516C4.1654 4.03516 3.42186 4.42506 2.74179 4.76056C2.1524 5.05073 1.68088 5.30462 0.882935 5.30462V7.0728C2.10706 7.0728 2.8778 6.68289 3.55787 6.34739C4.14727 6.03003 4.60065 5.80334 5.41673 5.80334C6.23281 5.80334 6.68619 6.03003 7.27558 6.34739C7.95565 6.69196 8.6992 7.0728 9.95052 7.0728C11.2018 7.0728 11.9454 6.68289 12.6255 6.34739C13.2149 6.03003 13.6682 5.80334 14.4843 5.80334C15.3004 5.80334 15.7538 6.03003 16.3432 6.34739C17.0232 6.69196 17.7759 7.0728 19.0181 7.0728V5.30462C18.202 5.30462 17.7486 5.07793 17.1593 4.76056C16.4792 4.41599 15.7084 4.03516 14.4843 4.03516Z" fill="black"/>
<path d="M14.4843 0C13.2602 0 12.4894 0.389906 11.8094 0.725407C11.22 1.04277 10.7666 1.26946 9.95052 1.26946C9.13444 1.26946 8.68106 1.04277 8.09167 0.725407C7.4116 0.380839 6.66806 0 5.41673 0C4.1654 0 3.42186 0.389906 2.74179 0.725407C2.1524 1.04277 1.69902 1.26946 0.882935 1.26946V3.03764C2.10706 3.03764 2.8778 2.64774 3.55787 2.31224C4.14727 2.02207 4.62785 1.76818 5.41673 1.76818C6.20561 1.76818 6.68619 1.99487 7.27558 2.31224C7.95565 2.6568 8.6992 3.03764 9.95052 3.03764C11.2018 3.03764 11.9454 2.64774 12.6255 2.31224C13.2149 2.02207 13.6954 1.76818 14.4843 1.76818C15.3004 1.76818 15.7538 1.99487 16.3432 2.31224C17.0232 2.6568 17.7759 3.03764 19.0181 3.03764V1.26946C18.202 1.26946 17.7486 1.04277 17.1593 0.725407C16.4792 0.380839 15.7084 0 14.4843 0Z" fill="black"/>
</svg>
