<svg width="20" height="12" viewBox="0 0 20 12" fill="none" xmlns="http://www.w3.org/2000/svg">
<path d="M14.4844 8.07013C13.2603 8.07013 12.4895 8.45097 11.8094 8.79554C11.22 9.09477 10.7395 9.33959 9.95058 9.33959C9.1345 9.33959 8.68112 9.1129 8.09173 8.79554C7.41166 8.45097 6.66812 8.07013 5.41679 8.07013C4.16546 8.07013 3.42192 8.45097 2.74185 8.79554C2.15246 9.09477 1.68094 9.33959 0.882996 9.33959V11.1078C2.10712 11.1078 2.87786 10.7269 3.55793 10.3824C4.14733 10.0831 4.61884 9.83831 5.41679 9.83831C6.21474 9.83831 6.68625 10.065 7.27565 10.3824C7.95571 10.7269 8.69926 11.1078 9.95058 11.1078C11.2019 11.1078 11.9455 10.7269 12.6255 10.3824C13.2149 10.0831 13.6955 9.83831 14.4844 9.83831C15.3005 9.83831 15.7538 10.065 16.3432 10.3824C17.0233 10.7269 17.7759 11.1078 19.0182 11.1078V9.33959C18.2021 9.33959 17.7487 9.1129 17.1593 8.79554C16.4792 8.45097 15.7085 8.07013 14.4844 8.07013Z" fill="#717171"/>
<path d="M14.4844 4.03508C13.2603 4.03508 12.4895 4.42499 11.8094 4.76049C11.22 5.05065 10.7395 5.30454 9.95058 5.30454C9.1345 5.30454 8.68112 5.07785 8.09173 4.76049C7.41166 4.41592 6.66812 4.03508 5.41679 4.03508C4.16546 4.03508 3.42192 4.42499 2.74185 4.76049C2.15246 5.05065 1.68094 5.30454 0.882996 5.30454V7.07272C2.10712 7.07272 2.87786 6.68282 3.55793 6.34732C4.14733 6.02995 4.60071 5.80326 5.41679 5.80326C6.23287 5.80326 6.68625 6.02995 7.27565 6.34732C7.95571 6.69188 8.69926 7.07272 9.95058 7.07272C11.2019 7.07272 11.9455 6.68282 12.6255 6.34732C13.2149 6.02995 13.6683 5.80326 14.4844 5.80326C15.3005 5.80326 15.7538 6.02995 16.3432 6.34732C17.0233 6.69188 17.7759 7.07272 19.0182 7.07272V5.30454C18.2021 5.30454 17.7487 5.07785 17.1593 4.76049C16.4792 4.41592 15.7085 4.03508 14.4844 4.03508Z" fill="#717171"/>
<path d="M14.4843 0C13.2602 0 12.4894 0.389906 11.8094 0.725407C11.22 1.04277 10.7666 1.26946 9.95052 1.26946C9.13444 1.26946 8.68106 1.04277 8.09167 0.725407C7.4116 0.380839 6.66806 0 5.41673 0C4.1654 0 3.42186 0.389906 2.74179 0.725407C2.1524 1.04277 1.69902 1.26946 0.882935 1.26946V3.03764C2.10706 3.03764 2.8778 2.64774 3.55787 2.31224C4.14727 2.02207 4.62785 1.76818 5.41673 1.76818C6.20561 1.76818 6.68619 1.99487 7.27558 2.31224C7.95565 2.6568 8.6992 3.03764 9.95052 3.03764C11.2018 3.03764 11.9454 2.64774 12.6255 2.31224C13.2149 2.02207 13.6954 1.76818 14.4843 1.76818C15.3004 1.76818 15.7538 1.99487 16.3432 2.31224C17.0232 2.6568 17.7759 3.03764 19.0181 3.03764V1.26946C18.202 1.26946 17.7486 1.04277 17.1593 0.725407C16.4792 0.380839 15.7084 0 14.4843 0Z" fill="#717171"/>
</svg>
