<svg width="21" height="19" viewBox="0 0 21 19" fill="none" xmlns="http://www.w3.org/2000/svg">
<path d="M0.884155 6.04276C0.884155 10.322 4.54092 14.5364 10.1947 18.1672C10.4022 18.2969 10.6745 18.4136 10.8819 18.4136C11.0764 18.4136 11.3488 18.2969 11.5562 18.1672C17.21 14.5364 20.8668 10.322 20.8668 6.04276C20.8668 2.51567 18.4419 0 15.1871 0C13.3328 0 11.7767 0.920679 10.8819 2.34708C9.98721 0.933666 8.41816 0 6.56382 0C3.30905 0 0.884155 2.51567 0.884155 6.04276ZM2.32351 6.04276C2.32351 3.29371 4.113 1.45235 6.5379 1.45235C8.44408 1.45235 9.57225 2.6194 10.2465 3.72162C10.4929 4.08471 10.6485 4.20143 10.8819 4.20143C11.1024 4.20143 11.245 4.08471 11.5044 3.72162C12.2176 2.64535 13.3198 1.45235 15.213 1.45235C17.6379 1.45235 19.4274 3.29371 19.4274 6.04276C19.4274 9.84219 15.4464 13.888 11.0635 16.8056C10.9857 16.8575 10.9208 16.9094 10.8819 16.9094C10.843 16.9094 10.7782 16.8575 10.6874 16.8056C6.30449 13.888 2.32351 9.84219 2.32351 6.04276Z" fill="black"/>
</svg>
