<svg width="23" height="20" viewBox="0 0 23 20" fill="none" xmlns="http://www.w3.org/2000/svg">
<path fill-rule="evenodd" clip-rule="evenodd" d="M4.17582 17.9872C5.65364 17.9872 6.85165 16.7892 6.85165 15.3114C6.85165 13.8336 5.65364 12.6356 4.17582 12.6356C2.69801 12.6356 1.5 13.8336 1.5 15.3114C1.5 16.7892 2.69801 17.9872 4.17582 17.9872ZM4.17582 19.4872C6.48207 19.4872 8.35165 17.6176 8.35165 15.3114C8.35165 13.0051 6.48207 11.1356 4.17582 11.1356C1.86958 11.1356 0 13.0051 0 15.3114C0 17.6176 1.86958 19.4872 4.17582 19.4872Z" fill="black"/>
<path fill-rule="evenodd" clip-rule="evenodd" d="M18.0953 17.9872C19.5731 17.9872 20.7711 16.7892 20.7711 15.3114C20.7711 13.8336 19.5731 12.6356 18.0953 12.6356C16.6174 12.6356 15.4194 13.8336 15.4194 15.3114C15.4194 16.7892 16.6174 17.9872 18.0953 17.9872ZM18.0953 19.4872C20.4015 19.4872 22.2711 17.6176 22.2711 15.3114C22.2711 13.0051 20.4015 11.1356 18.0953 11.1356C15.789 11.1356 13.9194 13.0051 13.9194 15.3114C13.9194 17.6176 15.789 19.4872 18.0953 19.4872Z" fill="black"/>
<path fill-rule="evenodd" clip-rule="evenodd" d="M10.7876 6.85165C12.5729 6.85165 13.8114 5.54285 13.8114 4.17582C13.8114 2.80879 12.5729 1.5 10.7876 1.5C9.00229 1.5 7.76379 2.80879 7.76379 4.17582C7.76379 5.54285 9.00229 6.85165 10.7876 6.85165ZM10.7876 8.35165C13.286 8.35165 15.3114 6.48207 15.3114 4.17582C15.3114 1.86958 13.286 0 10.7876 0C8.28917 0 6.26379 1.86958 6.26379 4.17582C6.26379 6.48207 8.28917 8.35165 10.7876 8.35165Z" fill="black"/>
</svg>
