<svg width="23" height="20" viewBox="0 0 23 20" fill="none" xmlns="http://www.w3.org/2000/svg">
<path fill-rule="evenodd" clip-rule="evenodd" d="M4.17582 17.9871C5.65364 17.9871 6.85165 16.7891 6.85165 15.3113C6.85165 13.8335 5.65364 12.6355 4.17582 12.6355C2.69801 12.6355 1.5 13.8335 1.5 15.3113C1.5 16.7891 2.69801 17.9871 4.17582 17.9871ZM4.17582 19.4871C6.48207 19.4871 8.35165 17.6176 8.35165 15.3113C8.35165 13.0051 6.48207 11.1355 4.17582 11.1355C1.86958 11.1355 0 13.0051 0 15.3113C0 17.6176 1.86958 19.4871 4.17582 19.4871Z" fill="#717171"/>
<path fill-rule="evenodd" clip-rule="evenodd" d="M18.0953 17.9871C19.5731 17.9871 20.7711 16.7891 20.7711 15.3113C20.7711 13.8335 19.5731 12.6355 18.0953 12.6355C16.6175 12.6355 15.4195 13.8335 15.4195 15.3113C15.4195 16.7891 16.6175 17.9871 18.0953 17.9871ZM18.0953 19.4871C20.4016 19.4871 22.2711 17.6176 22.2711 15.3113C22.2711 13.0051 20.4016 11.1355 18.0953 11.1355C15.7891 11.1355 13.9195 13.0051 13.9195 15.3113C13.9195 17.6176 15.7891 19.4871 18.0953 19.4871Z" fill="#717171"/>
<path fill-rule="evenodd" clip-rule="evenodd" d="M10.7875 6.85165C12.5729 6.85165 13.8114 5.54285 13.8114 4.17582C13.8114 2.80879 12.5729 1.5 10.7875 1.5C9.00223 1.5 7.76373 2.80879 7.76373 4.17582C7.76373 5.54285 9.00223 6.85165 10.7875 6.85165ZM10.7875 8.35165C13.286 8.35165 15.3114 6.48207 15.3114 4.17582C15.3114 1.86958 13.286 0 10.7875 0C8.28911 0 6.26373 1.86958 6.26373 4.17582C6.26373 6.48207 8.28911 8.35165 10.7875 8.35165Z" fill="#717171"/>
</svg>
