<svg width="42" height="37" viewBox="0 0 42 37" fill="none" xmlns="http://www.w3.org/2000/svg">
<path d="M2.40517 27.14H4.84117C5.69717 27.14 6.36917 27.296 6.85717 27.608C7.35317 27.912 7.60117 28.4 7.60117 29.072C7.60117 29.464 7.50117 29.816 7.30117 30.128C7.10117 30.44 6.82917 30.656 6.48517 30.776V30.824C6.95717 30.928 7.33317 31.14 7.61317 31.46C7.89317 31.772 8.03317 32.184 8.03317 32.696C8.03317 33.448 7.75717 34.02 7.20517 34.412C6.66117 34.804 5.93717 35 5.03317 35H2.40517V27.14ZM4.69717 30.428C5.83317 30.428 6.40117 30.032 6.40117 29.24C6.40117 28.832 6.26517 28.54 5.99317 28.364C5.72117 28.188 5.30117 28.1 4.73317 28.1H3.62917V30.428H4.69717ZM4.88917 34.04C5.52117 34.04 6.00117 33.924 6.32917 33.692C6.66517 33.46 6.83317 33.108 6.83317 32.636C6.83317 31.78 6.18517 31.352 4.88917 31.352H3.62917V34.04H4.88917ZM9.41045 29.132H10.4065L10.5025 30.188H10.5385C10.7465 29.812 10.9945 29.52 11.2825 29.312C11.5785 29.096 11.8865 28.988 12.2065 28.988C12.4705 28.988 12.6865 29.028 12.8545 29.108L12.6385 30.164C12.4225 30.1 12.2265 30.068 12.0505 30.068C11.7865 30.068 11.5265 30.172 11.2705 30.38C11.0145 30.58 10.7985 30.9 10.6225 31.34V35H9.41045V29.132ZM18.2969 31.76C18.2969 31.984 18.2809 32.192 18.2489 32.384H14.3729C14.4289 32.976 14.6289 33.428 14.9729 33.74C15.3249 34.044 15.7489 34.196 16.2449 34.196C16.7169 34.196 17.1849 34.048 17.6489 33.752L18.0689 34.52C17.4449 34.936 16.7849 35.144 16.0889 35.144C15.5529 35.144 15.0689 35.02 14.6369 34.772C14.2049 34.524 13.8609 34.168 13.6049 33.704C13.3569 33.24 13.2329 32.696 13.2329 32.072C13.2329 31.456 13.3569 30.916 13.6049 30.452C13.8609 29.98 14.1929 29.62 14.6009 29.372C15.0089 29.116 15.4449 28.988 15.9089 28.988C16.6689 28.988 17.2569 29.24 17.6729 29.744C18.0889 30.24 18.2969 30.912 18.2969 31.76ZM17.2409 31.544C17.2409 31.032 17.1289 30.636 16.9049 30.356C16.6809 30.076 16.3569 29.936 15.9329 29.936C15.5649 29.936 15.2369 30.072 14.9489 30.344C14.6609 30.616 14.4769 31.016 14.3969 31.544H17.2409ZM20.904 35.144C20.392 35.144 19.976 34.992 19.656 34.688C19.336 34.376 19.176 33.96 19.176 33.44C19.176 32.808 19.456 32.324 20.016 31.988C20.576 31.644 21.468 31.404 22.692 31.268C22.676 30.404 22.3 29.972 21.564 29.972C21.068 29.972 20.504 30.172 19.872 30.572L19.416 29.756C20.216 29.244 21.004 28.988 21.78 28.988C22.492 28.988 23.024 29.204 23.376 29.636C23.728 30.06 23.904 30.672 23.904 31.472V35H22.908L22.812 34.328H22.776C22.128 34.872 21.504 35.144 20.904 35.144ZM21.276 34.184C21.524 34.184 21.756 34.128 21.972 34.016C22.188 33.904 22.428 33.728 22.692 33.488V32.036C21.844 32.14 21.24 32.3 20.88 32.516C20.528 32.732 20.352 33.012 20.352 33.356C20.352 33.628 20.436 33.836 20.604 33.98C20.772 34.116 20.996 34.184 21.276 34.184ZM27.4331 35.144C26.2491 35.144 25.6571 34.46 25.6571 33.092V30.104H24.8051V29.192L25.7171 29.132L25.8611 27.512H26.8691V29.132H28.4051V30.104H26.8691V33.092C26.8691 33.452 26.9371 33.724 27.0731 33.908C27.2091 34.084 27.4291 34.172 27.7331 34.172C27.9171 34.172 28.1291 34.124 28.3691 34.028L28.5851 34.928C28.1531 35.072 27.7691 35.144 27.4331 35.144ZM29.6722 26.492H30.8842V28.748L30.8362 29.912C31.1402 29.624 31.4402 29.4 31.7362 29.24C32.0402 29.072 32.3762 28.988 32.7442 28.988C33.9442 28.988 34.5442 29.76 34.5442 31.304V35H33.3322V31.46C33.3322 30.956 33.2522 30.592 33.0922 30.368C32.9402 30.144 32.6882 30.032 32.3362 30.032C32.0722 30.032 31.8362 30.096 31.6282 30.224C31.4202 30.344 31.1722 30.548 30.8842 30.836V35H29.6722V26.492ZM40.9493 31.76C40.9493 31.984 40.9333 32.192 40.9013 32.384H37.0253C37.0813 32.976 37.2813 33.428 37.6253 33.74C37.9773 34.044 38.4013 34.196 38.8973 34.196C39.3693 34.196 39.8373 34.048 40.3013 33.752L40.7213 34.52C40.0973 34.936 39.4373 35.144 38.7413 35.144C38.2053 35.144 37.7213 35.02 37.2893 34.772C36.8573 34.524 36.5133 34.168 36.2573 33.704C36.0093 33.24 35.8853 32.696 35.8853 32.072C35.8853 31.456 36.0093 30.916 36.2573 30.452C36.5133 29.98 36.8453 29.62 37.2533 29.372C37.6613 29.116 38.0973 28.988 38.5613 28.988C39.3213 28.988 39.9093 29.24 40.3253 29.744C40.7413 30.24 40.9493 30.912 40.9493 31.76ZM39.8933 31.544C39.8933 31.032 39.7813 30.636 39.5573 30.356C39.3333 30.076 39.0093 29.936 38.5853 29.936C38.2173 29.936 37.8893 30.072 37.6013 30.344C37.3133 30.616 37.1293 31.016 37.0493 31.544H39.8933Z" fill="black"/>
<path d="M26.4843 14.0701C25.2602 14.0701 24.4894 14.4509 23.8094 14.7955C23.22 15.0947 22.7394 15.3395 21.9505 15.3395C21.1344 15.3395 20.6811 15.1128 20.0917 14.7955C19.4116 14.4509 18.6681 14.0701 17.4167 14.0701C16.1654 14.0701 15.4219 14.4509 14.7418 14.7955C14.1524 15.0947 13.6809 15.3395 12.8829 15.3395V17.1077C14.1071 17.1077 14.8778 16.7269 15.5579 16.3823C16.1473 16.0831 16.6188 15.8382 17.4167 15.8382C18.2147 15.8382 18.6862 16.0649 19.2756 16.3823C19.9557 16.7269 20.6992 17.1077 21.9505 17.1077C23.2018 17.1077 23.9454 16.7269 24.6255 16.3823C25.2149 16.0831 25.6954 15.8382 26.4843 15.8382C27.3004 15.8382 27.7538 16.0649 28.3432 16.3823C29.0232 16.7269 29.7759 17.1077 31.0181 17.1077V15.3395C30.202 15.3395 29.7486 15.1128 29.1593 14.7955C28.4792 14.4509 27.7084 14.0701 26.4843 14.0701Z" fill="black"/>
<path d="M26.4843 10.0352C25.2602 10.0352 24.4894 10.4251 23.8094 10.7606C23.22 11.0507 22.7394 11.3046 21.9505 11.3046C21.1344 11.3046 20.6811 11.0779 20.0917 10.7606C19.4116 10.416 18.6681 10.0352 17.4167 10.0352C16.1654 10.0352 15.4219 10.4251 14.7418 10.7606C14.1524 11.0507 13.6809 11.3046 12.8829 11.3046V13.0728C14.1071 13.0728 14.8778 12.6829 15.5579 12.3474C16.1473 12.03 16.6006 11.8033 17.4167 11.8033C18.2328 11.8033 18.6862 12.03 19.2756 12.3474C19.9557 12.692 20.6992 13.0728 21.9505 13.0728C23.2018 13.0728 23.9454 12.6829 24.6255 12.3474C25.2149 12.03 25.6682 11.8033 26.4843 11.8033C27.3004 11.8033 27.7538 12.03 28.3432 12.3474C29.0232 12.692 29.7759 13.0728 31.0181 13.0728V11.3046C30.202 11.3046 29.7486 11.0779 29.1593 10.7606C28.4792 10.416 27.7084 10.0352 26.4843 10.0352Z" fill="black"/>
<path d="M26.4843 6C25.2602 6 24.4894 6.38991 23.8094 6.72541C23.22 7.04277 22.7666 7.26946 21.9505 7.26946C21.1344 7.26946 20.6811 7.04277 20.0917 6.72541C19.4116 6.38084 18.6681 6 17.4167 6C16.1654 6 15.4219 6.38991 14.7418 6.72541C14.1524 7.04277 13.699 7.26946 12.8829 7.26946V9.03764C14.1071 9.03764 14.8778 8.64774 15.5579 8.31224C16.1473 8.02207 16.6278 7.76818 17.4167 7.76818C18.2056 7.76818 18.6862 7.99487 19.2756 8.31224C19.9557 8.6568 20.6992 9.03764 21.9505 9.03764C23.2018 9.03764 23.9454 8.64774 24.6255 8.31224C25.2149 8.02207 25.6954 7.76818 26.4843 7.76818C27.3004 7.76818 27.7538 7.99487 28.3432 8.31224C29.0232 8.6568 29.7759 9.03764 31.0181 9.03764V7.26946C30.202 7.26946 29.7486 7.04277 29.1593 6.72541C28.4792 6.38084 27.7084 6 26.4843 6Z" fill="black"/>
</svg>
