<svg width="50" height="37" viewBox="0 0 50 37" fill="none" xmlns="http://www.w3.org/2000/svg">
<path d="M3.11342 27.14H7.76942V28.172H4.33742V30.584H7.25342V31.616H4.33742V35H3.11342V27.14ZM10.0107 35.144C9.4987 35.144 9.0827 34.992 8.7627 34.688C8.4427 34.376 8.2827 33.96 8.2827 33.44C8.2827 32.808 8.5627 32.324 9.1227 31.988C9.6827 31.644 10.5747 31.404 11.7987 31.268C11.7827 30.404 11.4067 29.972 10.6707 29.972C10.1747 29.972 9.6107 30.172 8.9787 30.572L8.5227 29.756C9.3227 29.244 10.1107 28.988 10.8867 28.988C11.5987 28.988 12.1307 29.204 12.4827 29.636C12.8347 30.06 13.0107 30.672 13.0107 31.472V35H12.0147L11.9187 34.328H11.8827C11.2347 34.872 10.6107 35.144 10.0107 35.144ZM10.3827 34.184C10.6307 34.184 10.8627 34.128 11.0787 34.016C11.2947 33.904 11.5347 33.728 11.7987 33.488V32.036C10.9507 32.14 10.3467 32.3 9.9867 32.516C9.6347 32.732 9.4587 33.012 9.4587 33.356C9.4587 33.628 9.5427 33.836 9.7107 33.98C9.8787 34.116 10.1027 34.184 10.3827 34.184ZM13.9676 29.132H15.2036L16.2116 32.3L16.7276 34.052H16.7756L17.2916 32.3L18.2996 29.132H19.4756L17.4476 35H16.0436L13.9676 29.132ZM22.8418 35.144C22.3538 35.144 21.8978 35.02 21.4738 34.772C21.0498 34.524 20.7098 34.168 20.4538 33.704C20.2058 33.24 20.0818 32.696 20.0818 32.072C20.0818 31.44 20.2058 30.892 20.4538 30.428C20.7098 29.964 21.0458 29.608 21.4618 29.36C21.8858 29.112 22.3458 28.988 22.8418 28.988C23.3378 28.988 23.7938 29.112 24.2098 29.36C24.6338 29.608 24.9698 29.964 25.2178 30.428C25.4738 30.892 25.6018 31.44 25.6018 32.072C25.6018 32.696 25.4738 33.24 25.2178 33.704C24.9698 34.168 24.6338 34.524 24.2098 34.772C23.7858 35.02 23.3298 35.144 22.8418 35.144ZM22.8418 34.148C23.3058 34.148 23.6738 33.96 23.9458 33.584C24.2178 33.2 24.3538 32.696 24.3538 32.072C24.3538 31.448 24.2138 30.944 23.9338 30.56C23.6618 30.176 23.2978 29.984 22.8418 29.984C22.3858 29.984 22.0178 30.176 21.7378 30.56C21.4658 30.944 21.3298 31.448 21.3298 32.072C21.3298 32.696 21.4658 33.2 21.7378 33.584C22.0098 33.96 22.3778 34.148 22.8418 34.148ZM27.0406 29.132H28.0366L28.1326 30.188H28.1686C28.3766 29.812 28.6246 29.52 28.9126 29.312C29.2086 29.096 29.5166 28.988 29.8366 28.988C30.1006 28.988 30.3166 29.028 30.4846 29.108L30.2686 30.164C30.0526 30.1 29.8566 30.068 29.6806 30.068C29.4166 30.068 29.1566 30.172 28.9006 30.38C28.6446 30.58 28.4286 30.9 28.2526 31.34V35H27.0406V29.132ZM31.3882 29.132H32.6002V35H31.3882V29.132ZM32.0002 28.028C31.7842 28.028 31.6042 27.96 31.4602 27.824C31.3242 27.688 31.2562 27.512 31.2562 27.296C31.2562 27.088 31.3242 26.916 31.4602 26.78C31.6042 26.644 31.7842 26.576 32.0002 26.576C32.2162 26.576 32.3922 26.644 32.5282 26.78C32.6722 26.916 32.7442 27.088 32.7442 27.296C32.7442 27.512 32.6722 27.688 32.5282 27.824C32.3922 27.96 32.2162 28.028 32.0002 28.028ZM36.4148 35.144C35.2308 35.144 34.6388 34.46 34.6388 33.092V30.104H33.7868V29.192L34.6988 29.132L34.8428 27.512H35.8508V29.132H37.3868V30.104H35.8508V33.092C35.8508 33.452 35.9188 33.724 36.0548 33.908C36.1908 34.084 36.4108 34.172 36.7148 34.172C36.8988 34.172 37.1108 34.124 37.3508 34.028L37.5668 34.928C37.1348 35.072 36.7508 35.144 36.4148 35.144ZM43.1341 31.76C43.1341 31.984 43.1181 32.192 43.0861 32.384H39.2101C39.2661 32.976 39.4661 33.428 39.8101 33.74C40.1621 34.044 40.5861 34.196 41.0821 34.196C41.5541 34.196 42.0221 34.048 42.4861 33.752L42.9061 34.52C42.2821 34.936 41.6221 35.144 40.9261 35.144C40.3901 35.144 39.9061 35.02 39.4741 34.772C39.0421 34.524 38.6981 34.168 38.4421 33.704C38.1941 33.24 38.0701 32.696 38.0701 32.072C38.0701 31.456 38.1941 30.916 38.4421 30.452C38.6981 29.98 39.0301 29.62 39.4381 29.372C39.8461 29.116 40.2821 28.988 40.7461 28.988C41.5061 28.988 42.0941 29.24 42.5101 29.744C42.9261 30.24 43.1341 30.912 43.1341 31.76ZM42.0781 31.544C42.0781 31.032 41.9661 30.636 41.7421 30.356C41.5181 30.076 41.1941 29.936 40.7701 29.936C40.4021 29.936 40.0741 30.072 39.7861 30.344C39.4981 30.616 39.3141 31.016 39.2341 31.544H42.0781ZM46.0975 35.144C45.7055 35.144 45.3135 35.068 44.9215 34.916C44.5295 34.764 44.1855 34.568 43.8895 34.328L44.4655 33.548C44.7455 33.764 45.0175 33.932 45.2815 34.052C45.5455 34.164 45.8295 34.22 46.1335 34.22C46.4695 34.22 46.7255 34.148 46.9015 34.004C47.0775 33.852 47.1655 33.66 47.1655 33.428C47.1655 33.188 47.0575 33 46.8415 32.864C46.6255 32.72 46.3015 32.568 45.8695 32.408C45.3495 32.216 44.9375 31.996 44.6335 31.748C44.3295 31.492 44.1775 31.144 44.1775 30.704C44.1775 30.2 44.3655 29.788 44.7415 29.468C45.1175 29.148 45.6255 28.988 46.2655 28.988C46.9535 28.988 47.5855 29.216 48.1615 29.672L47.5975 30.428C47.3735 30.26 47.1575 30.132 46.9495 30.044C46.7415 29.956 46.5215 29.912 46.2895 29.912C45.9775 29.912 45.7375 29.98 45.5695 30.116C45.4095 30.252 45.3295 30.428 45.3295 30.644C45.3295 30.804 45.3855 30.94 45.4975 31.052C45.6095 31.156 45.7375 31.24 45.8815 31.304C46.0335 31.368 46.2695 31.46 46.5895 31.58C46.9415 31.708 47.2335 31.84 47.4655 31.976C47.7055 32.104 47.9055 32.28 48.0655 32.504C48.2335 32.728 48.3175 33.012 48.3175 33.356C48.3175 33.692 48.2295 33.996 48.0535 34.268C47.8855 34.532 47.6335 34.744 47.2975 34.904C46.9615 35.064 46.5615 35.144 46.0975 35.144Z" fill="#717171"/>
<path d="M14.8842 10.0428C14.8842 14.322 18.5409 18.5364 24.1947 22.1672C24.4022 22.2969 24.6745 22.4136 24.8819 22.4136C25.0764 22.4136 25.3488 22.2969 25.5562 22.1672C31.21 18.5364 34.8668 14.322 34.8668 10.0428C34.8668 6.51567 32.4419 4 29.1871 4C27.3328 4 25.7767 4.92068 24.8819 6.34708C23.9872 4.93367 22.4182 4 20.5638 4C17.309 4 14.8842 6.51567 14.8842 10.0428ZM16.3235 10.0428C16.3235 7.29371 18.113 5.45235 20.5379 5.45235C22.4441 5.45235 23.5723 6.6194 24.2465 7.72162C24.4929 8.08471 24.6485 8.20143 24.8819 8.20143C25.1024 8.20143 25.245 8.08471 25.5044 7.72162C26.2176 6.64535 27.3198 5.45235 29.213 5.45235C31.6379 5.45235 33.4274 7.29371 33.4274 10.0428C33.4274 13.8422 29.4464 17.888 25.0635 20.8056C24.9857 20.8575 24.9208 20.9094 24.8819 20.9094C24.843 20.9094 24.7782 20.8575 24.6874 20.8056C20.3045 17.888 16.3235 13.8422 16.3235 10.0428Z" fill="#717171"/>
</svg>
