<svg width="48" height="37" viewBox="0 0 48 37" fill="none" xmlns="http://www.w3.org/2000/svg">
<path d="M3.11464 27.14H4.53064L5.97064 31.136L6.25864 32.012L6.49864 32.72H6.54664C6.67464 32.336 6.75464 32.088 6.78664 31.976L7.06264 31.136L8.47864 27.14H9.89464V35H8.76664V31.088C8.76664 30.656 8.81064 29.94 8.89864 28.94L8.92264 28.664H8.87464L8.25064 30.476L6.87064 34.232H6.11464L4.73464 30.476L4.11064 28.664H4.06264L4.08664 28.94C4.17464 29.94 4.21864 30.656 4.21864 31.088V35H3.11464V27.14ZM16.5103 31.76C16.5103 31.984 16.4943 32.192 16.4623 32.384H12.5863C12.6423 32.976 12.8423 33.428 13.1863 33.74C13.5383 34.044 13.9623 34.196 14.4583 34.196C14.9303 34.196 15.3983 34.048 15.8623 33.752L16.2823 34.52C15.6583 34.936 14.9983 35.144 14.3023 35.144C13.7663 35.144 13.2823 35.02 12.8503 34.772C12.4183 34.524 12.0743 34.168 11.8183 33.704C11.5703 33.24 11.4463 32.696 11.4463 32.072C11.4463 31.456 11.5703 30.916 11.8183 30.452C12.0743 29.98 12.4063 29.62 12.8143 29.372C13.2223 29.116 13.6583 28.988 14.1223 28.988C14.8823 28.988 15.4703 29.24 15.8863 29.744C16.3023 30.24 16.5103 30.912 16.5103 31.76ZM15.4543 31.544C15.4543 31.032 15.3423 30.636 15.1183 30.356C14.8943 30.076 14.5703 29.936 14.1463 29.936C13.7783 29.936 13.4503 30.072 13.1623 30.344C12.8743 30.616 12.6903 31.016 12.6103 31.544H15.4543ZM19.9057 35.144C19.1697 35.144 18.5817 34.872 18.1417 34.328C17.7097 33.784 17.4937 33.032 17.4937 32.072C17.4937 31.456 17.6097 30.916 17.8417 30.452C18.0737 29.98 18.3817 29.62 18.7657 29.372C19.1497 29.116 19.5617 28.988 20.0017 28.988C20.3137 28.988 20.5897 29.044 20.8297 29.156C21.0697 29.26 21.3217 29.424 21.5857 29.648L21.5377 28.676V26.492H22.7497V35H21.7537L21.6577 34.34H21.6217C21.3817 34.58 21.1137 34.776 20.8177 34.928C20.5217 35.072 20.2177 35.144 19.9057 35.144ZM20.1937 34.136C20.4417 34.136 20.6737 34.08 20.8897 33.968C21.1057 33.848 21.3217 33.664 21.5377 33.416V30.536C21.1377 30.176 20.7057 29.996 20.2417 29.996C19.9617 29.996 19.7057 30.08 19.4737 30.248C19.2497 30.416 19.0697 30.656 18.9337 30.968C18.8057 31.28 18.7417 31.644 18.7417 32.06C18.7417 32.724 18.8657 33.236 19.1137 33.596C19.3697 33.956 19.7297 34.136 20.1937 34.136ZM24.5926 29.132H25.8046V35H24.5926V29.132ZM25.2046 28.028C24.9886 28.028 24.8086 27.96 24.6646 27.824C24.5286 27.688 24.4606 27.512 24.4606 27.296C24.4606 27.088 24.5286 26.916 24.6646 26.78C24.8086 26.644 24.9886 26.576 25.2046 26.576C25.4206 26.576 25.5966 26.644 25.7326 26.78C25.8766 26.916 25.9486 27.088 25.9486 27.296C25.9486 27.512 25.8766 27.688 25.7326 27.824C25.5966 27.96 25.4206 28.028 25.2046 28.028ZM29.6192 35.144C28.4352 35.144 27.8432 34.46 27.8432 33.092V30.104H26.9912V29.192L27.9032 29.132L28.0472 27.512H29.0552V29.132H30.5912V30.104H29.0552V33.092C29.0552 33.452 29.1232 33.724 29.2592 33.908C29.3952 34.084 29.6152 34.172 29.9192 34.172C30.1032 34.172 30.3152 34.124 30.5552 34.028L30.7712 34.928C30.3392 35.072 29.9552 35.144 29.6192 35.144ZM32.9924 35.144C32.4804 35.144 32.0644 34.992 31.7444 34.688C31.4244 34.376 31.2644 33.96 31.2644 33.44C31.2644 32.808 31.5444 32.324 32.1044 31.988C32.6644 31.644 33.5564 31.404 34.7804 31.268C34.7644 30.404 34.3884 29.972 33.6524 29.972C33.1564 29.972 32.5924 30.172 31.9604 30.572L31.5044 29.756C32.3044 29.244 33.0924 28.988 33.8684 28.988C34.5804 28.988 35.1124 29.204 35.4644 29.636C35.8164 30.06 35.9924 30.672 35.9924 31.472V35H34.9964L34.9004 34.328H34.8644C34.2164 34.872 33.5924 35.144 32.9924 35.144ZM33.3644 34.184C33.6124 34.184 33.8444 34.128 34.0604 34.016C34.2764 33.904 34.5164 33.728 34.7804 33.488V32.036C33.9324 32.14 33.3284 32.3 32.9684 32.516C32.6164 32.732 32.4404 33.012 32.4404 33.356C32.4404 33.628 32.5244 33.836 32.6924 33.98C32.8604 34.116 33.0844 34.184 33.3644 34.184ZM39.5215 35.144C38.3375 35.144 37.7455 34.46 37.7455 33.092V30.104H36.8935V29.192L37.8055 29.132L37.9495 27.512H38.9575V29.132H40.4935V30.104H38.9575V33.092C38.9575 33.452 39.0255 33.724 39.1615 33.908C39.2975 34.084 39.5175 34.172 39.8215 34.172C40.0055 34.172 40.2175 34.124 40.4575 34.028L40.6735 34.928C40.2415 35.072 39.8575 35.144 39.5215 35.144ZM46.2408 31.76C46.2408 31.984 46.2248 32.192 46.1928 32.384H42.3168C42.3728 32.976 42.5728 33.428 42.9168 33.74C43.2688 34.044 43.6928 34.196 44.1888 34.196C44.6608 34.196 45.1288 34.048 45.5928 33.752L46.0128 34.52C45.3888 34.936 44.7288 35.144 44.0328 35.144C43.4968 35.144 43.0128 35.02 42.5808 34.772C42.1488 34.524 41.8048 34.168 41.5488 33.704C41.3008 33.24 41.1768 32.696 41.1768 32.072C41.1768 31.456 41.3008 30.916 41.5488 30.452C41.8048 29.98 42.1368 29.62 42.5448 29.372C42.9528 29.116 43.3888 28.988 43.8528 28.988C44.6128 28.988 45.2008 29.24 45.6168 29.744C46.0328 30.24 46.2408 30.912 46.2408 31.76ZM45.1848 31.544C45.1848 31.032 45.0728 30.636 44.8488 30.356C44.6248 30.076 44.3008 29.936 43.8768 29.936C43.5088 29.936 43.1808 30.072 42.8928 30.344C42.6048 30.616 42.4208 31.016 42.3408 31.544H45.1848Z" fill="black"/>
<circle cx="17.0592" cy="16.3114" r="3.42582" stroke="black" stroke-width="1.5"/>
<circle cx="30.9787" cy="16.3114" r="3.42582" stroke="black" stroke-width="1.5"/>
<path d="M27.4448 5.17582C27.4448 7.01246 25.8129 8.60165 23.671 8.60165C21.5292 8.60165 19.8972 7.01246 19.8972 5.17582C19.8972 3.33919 21.5292 1.75 23.671 1.75C25.8129 1.75 27.4448 3.33919 27.4448 5.17582Z" stroke="black" stroke-width="1.5"/>
</svg>
