<svg width="37" height="37" viewBox="0 0 37 37" fill="none" xmlns="http://www.w3.org/2000/svg">
<path d="M18.3393 10.3718C20.6994 10.3718 22.6003 8.30513 22.6003 5.7281C22.6003 3.21487 20.6994 1.21191 18.3393 1.21191C16.0046 1.21191 14.0782 3.24037 14.091 5.7536C14.091 8.30513 15.9919 10.3718 18.3393 10.3718ZM18.3393 9.04506C16.7956 9.04506 15.5071 7.60345 15.5071 5.7536C15.4943 3.9548 16.7828 2.55147 18.3393 2.55147C19.9084 2.55147 21.1842 3.92928 21.1842 5.7281C21.1842 7.57795 19.8957 9.04506 18.3393 9.04506ZM11.9732 19.5828H24.7053C26.2617 19.5828 27.0016 19.098 27.0016 18.0519C27.0016 15.4366 23.7102 11.6859 18.3393 11.6859C12.9556 11.6859 9.66412 15.4366 9.66412 18.0519C9.66412 19.098 10.4041 19.5828 11.9732 19.5828ZM11.5777 18.2433C11.2078 18.2433 11.0802 18.154 11.0802 17.886C11.0802 16.1128 13.6955 13.0254 18.3393 13.0254C22.983 13.0254 25.5855 16.1128 25.5855 17.886C25.5855 18.154 25.458 18.2433 25.1008 18.2433H11.5777Z" fill="black"/>
<path d="M2.63491 26.14H5.01091C7.01091 26.14 8.01091 26.932 8.01091 28.516C8.01091 29.34 7.73891 29.964 7.19491 30.388C6.65891 30.804 5.94691 31.012 5.05891 31.012H3.85891V34H2.63491V26.14ZM4.93891 30.028C5.57091 30.028 6.03891 29.904 6.34291 29.656C6.64691 29.408 6.79891 29.028 6.79891 28.516C6.79891 28.012 6.64291 27.656 6.33091 27.448C6.02691 27.232 5.54691 27.124 4.89091 27.124H3.85891V30.028H4.93891ZM9.42925 28.132H10.4252L10.5212 29.188H10.5572C10.7652 28.812 11.0132 28.52 11.3012 28.312C11.5972 28.096 11.9052 27.988 12.2252 27.988C12.4892 27.988 12.7052 28.028 12.8732 28.108L12.6572 29.164C12.4412 29.1 12.2452 29.068 12.0692 29.068C11.8052 29.068 11.5452 29.172 11.2892 29.38C11.0332 29.58 10.8172 29.9 10.6412 30.34V34H9.42925V28.132ZM16.0117 34.144C15.5237 34.144 15.0677 34.02 14.6437 33.772C14.2197 33.524 13.8797 33.168 13.6237 32.704C13.3757 32.24 13.2517 31.696 13.2517 31.072C13.2517 30.44 13.3757 29.892 13.6237 29.428C13.8797 28.964 14.2157 28.608 14.6317 28.36C15.0557 28.112 15.5157 27.988 16.0117 27.988C16.5077 27.988 16.9637 28.112 17.3797 28.36C17.8037 28.608 18.1397 28.964 18.3877 29.428C18.6437 29.892 18.7717 30.44 18.7717 31.072C18.7717 31.696 18.6437 32.24 18.3877 32.704C18.1397 33.168 17.8037 33.524 17.3797 33.772C16.9557 34.02 16.4997 34.144 16.0117 34.144ZM16.0117 33.148C16.4757 33.148 16.8437 32.96 17.1157 32.584C17.3877 32.2 17.5237 31.696 17.5237 31.072C17.5237 30.448 17.3837 29.944 17.1037 29.56C16.8317 29.176 16.4677 28.984 16.0117 28.984C15.5557 28.984 15.1877 29.176 14.9077 29.56C14.6357 29.944 14.4997 30.448 14.4997 31.072C14.4997 31.696 14.6357 32.2 14.9077 32.584C15.1797 32.96 15.5477 33.148 16.0117 33.148ZM22.3713 26.32C21.8513 26.32 21.5913 26.672 21.5913 27.376V28.132H22.7793V29.104H21.5913V34H20.3793V29.104H19.5873V28.192L20.3793 28.132V27.388C20.3793 26.756 20.5313 26.26 20.8353 25.9C21.1393 25.532 21.6033 25.348 22.2273 25.348C22.5793 25.348 22.9233 25.416 23.2593 25.552L23.0193 26.464C22.8033 26.368 22.5873 26.32 22.3713 26.32ZM23.8473 28.132H25.0593V34H23.8473V28.132ZM24.4593 27.028C24.2433 27.028 24.0633 26.96 23.9193 26.824C23.7833 26.688 23.7153 26.512 23.7153 26.296C23.7153 26.088 23.7833 25.916 23.9193 25.78C24.0633 25.644 24.2433 25.576 24.4593 25.576C24.6753 25.576 24.8513 25.644 24.9873 25.78C25.1313 25.916 25.2033 26.088 25.2033 26.296C25.2033 26.512 25.1313 26.688 24.9873 26.824C24.8513 26.96 24.6753 27.028 24.4593 27.028ZM28.1139 34.144C27.6899 34.144 27.3819 34.016 27.1899 33.76C26.9979 33.504 26.9019 33.128 26.9019 32.632V25.492H28.1139V32.704C28.1139 32.856 28.1419 32.968 28.1979 33.04C28.2539 33.112 28.3219 33.148 28.4019 33.148C28.4739 33.148 28.5459 33.14 28.6179 33.124L28.7739 34.036C28.5899 34.108 28.3699 34.144 28.1139 34.144ZM34.722 30.76C34.722 30.984 34.706 31.192 34.674 31.384H30.798C30.854 31.976 31.054 32.428 31.398 32.74C31.75 33.044 32.174 33.196 32.67 33.196C33.142 33.196 33.61 33.048 34.074 32.752L34.494 33.52C33.87 33.936 33.21 34.144 32.514 34.144C31.978 34.144 31.494 34.02 31.062 33.772C30.63 33.524 30.286 33.168 30.03 32.704C29.782 32.24 29.658 31.696 29.658 31.072C29.658 30.456 29.782 29.916 30.03 29.452C30.286 28.98 30.618 28.62 31.026 28.372C31.434 28.116 31.87 27.988 32.334 27.988C33.094 27.988 33.682 28.24 34.098 28.744C34.514 29.24 34.722 29.912 34.722 30.76ZM33.666 30.544C33.666 30.032 33.554 29.636 33.33 29.356C33.106 29.076 32.782 28.936 32.358 28.936C31.99 28.936 31.662 29.072 31.374 29.344C31.086 29.616 30.902 30.016 30.822 30.544H33.666Z" fill="black"/>
</svg>
